<svg width="1875" height="1435" viewBox="0 0 1875 1435" fill="none" xmlns="http://www.w3.org/2000/svg">
<path d="M1534.57 1401.88C1375.79 1365 1268.78 1241.6 1295.57 1126.25C1322.36 1010.91 1472.8 947.3 1631.58 984.179C1790.36 1021.06 1897.36 1144.46 1870.57 1259.8C1843.79 1375.15 1693.35 1438.75 1534.57 1401.88Z" fill="#D9D9D9"/>
<path d="M248.712 1429.93C89.9298 1393.06 -22.8458 960.554 3.94365 845.21C30.7331 729.865 716.243 816.352 875.026 853.23C1033.81 890.109 721.982 1041.74 695.193 1157.09C668.403 1272.43 407.494 1466.81 248.712 1429.93Z" fill="#D9D9D9"/>
<path d="M432.523 459.61C273.741 422.732 490.883 137.599 517.672 22.2548C544.462 -93.0894 792.375 275.657 951.157 312.535C1109.94 349.413 1090.19 413.933 1063.4 529.278C1036.61 644.622 591.306 496.489 432.523 459.61Z" fill="#D9D9D9"/>
</svg>
